<?xml version="1.0" encoding="UTF-8"?> <svg xmlns="http://www.w3.org/2000/svg" id="Capa_1" version="1.1" viewBox="0 0 20 20"><g id="Capa_11" data-name="Capa_1"><path d="M17.8,6.3c.2,0,.3,0,.4-.2.1,0,.2-.3.2-.4v-2.5c0-.5-.2-1-.5-1.3-.4-.4-.8-.5-1.3-.5H2.8c-.5,0-1,.2-1.3.5-.4.4-.5.8-.5,1.3v2.5c0,.2,0,.3.2.4.1,0,.3.2.4.2.3,0,.6,0,.9.4.2.2.4.6.4.9s0,.6-.4.9c-.2.2-.6.4-.9.4s-.3,0-.4.2c-.1.1-.2.3-.2.4v2.5c0,.5.2,1,.5,1.3.4.4.8.5,1.3.5h2.5c.2,0,.3,0,.4-.2,0-.1.2-.3.2-.4s0-.3-.2-.4c0-.1-.3-.2-.4-.2h-2.5c-.2,0-.3,0-.4-.2,0-.1-.2-.3-.2-.4v-2c.5-.1,1-.5,1.3-.9s.5-1,.5-1.5-.2-1.1-.5-1.5-.8-.7-1.3-.9v-2c0-.2,0-.3.2-.4s.3-.2.4-.2h6.2v.6c0,.2,0,.3.2.4.1,0,.3.2.4.2s.3,0,.4-.2c.1,0,.2-.3.2-.4v-.6h6.2c.2,0,.3,0,.4.2.1,0,.2.3.2.4v2c-.5,0-1,.5-1.3.9s-.5,1-.5,1.5.2,1.1.5,1.5c.3.4.8.7,1.3.9v2c0,.2,0,.3-.2.4-.1.1-.3.2-.4.2h-2.5c-.2,0-.3,0-.4.2s-.2.3-.2.4,0,.3.2.4.3.2.4.2h2.5c.5,0,1-.2,1.3-.5s.5-.8.5-1.3v-2.5c0-.2,0-.3-.2-.4-.1-.1-.3-.2-.4-.2-.3,0-.6-.1-.9-.4-.2-.2-.4-.6-.4-.9s.1-.6.4-.9c.2-.2.6-.4.9-.4h.2Z"></path><path d="M9.7,7.5c.2,0,.3,0,.4-.2.1,0,.2-.3.2-.4v-1.2c0-.2,0-.3-.2-.4-.1,0-.3-.2-.4-.2s-.3,0-.4.2c-.1,0-.2.3-.2.4v1.2c0,.2,0,.3.2.4s.3.2.4.2Z"></path><path d="M9.1,10.6c0,.2,0,.3.2.4s.3.2.4.2.3,0,.4-.2c.1-.1.2-.3.2-.4v-1.2c0-.2,0-.3-.2-.4-.1-.1-.3-.2-.4-.2s-.3,0-.4.2-.2.3-.2.4v1.2Z"></path><path d="M12.2,15c-.3,0-.5,0-.8.2s-.5.3-.6.5l-.3-.5,2.9-4.8v-.4c0-.1-.1-.3-.3-.3s-.3-.1-.4,0c-.1,0-.3.1-.4.2l-2.6,4.2-2.6-4.3s0-.2,0-.2c0,0,0-.1-.2-.1h-.6s0,.1-.2.2c0,0,0,.2,0,.2v.3s0,.2,0,.2l2.9,4.8-.3.5c-.2-.3-.6-.5-.9-.6h-1.1c-.4.1-.7.4-.9.7-.2.3-.3.7-.3,1.1s0,.8.3,1.1c.2.3.5.6.9.7s.7.2,1.1,0c.4,0,.7-.3,1-.6l.2-.2.9-1.5.9,1.5.2.2c.2.2.4.4.6.5.2.1.5.2.8.2.5,0,1-.2,1.3-.5s.5-.8.5-1.3-.2-1-.5-1.3-.8-.5-1.3-.5v-.2ZM7.2,17.5c0,0-.2,0-.3-.1,0,0-.2-.2-.2-.3v-.4c0-.1,0-.2.2-.3,0,0,.2-.1.3-.2h.4c0,0,.2.1.3.2,0,.1,0,.2,0,.3s0,.3-.2.4c0,.1-.3.2-.4.2l-.2.2ZM12.2,17.5c-.1,0-.2,0-.3-.1-.1,0-.2-.2-.2-.3v-.4c0-.1,0-.2.2-.3,0,0,.2-.1.3-.2h.4c.1,0,.2.1.3.2s.1.2.1.3,0,.3-.2.4-.3.2-.4.2l-.2.2Z"></path></g></svg> 