<?xml version="1.0" encoding="UTF-8"?> <svg xmlns="http://www.w3.org/2000/svg" id="Capa_1" version="1.1" viewBox="0 0 20 20"><g id="Capa_11" data-name="Capa_1"><g id="Capa_1-2"><g id="Capa_1-21" data-name="Capa_1-2"><g><path d="M19.7,11.1l-2.2-3.5c-.1-.2-.4-.4-.6-.4h-4.2v-2.2c0-.5-.2-.7-.7-.7h-2.6c-.7-1.7-2.4-2.8-4.4-2.8S.2,3.8.2,6.5s2.2,4.9,4.9,4.9,4.9-2.2,4.9-4.9,0-.5,0-.7h1.4v9.8h-3c-.2-.8-1.1-1.4-1.9-1.4s-1.7.6-1.9,1.4h-1.6v-2.8c0-.5-.2-.7-.7-.7s-.7.2-.7.7v3.5c0,.5.2.7.7.7h2.3c.2.8,1.1,1.4,1.9,1.4s1.7-.6,1.9-1.4h5.2c.2.8,1.1,1.4,1.9,1.4s1.7-.6,1.9-1.4h1.6c.5,0,.7-.2.7-.7v-5.3h0ZM5.1,10c-1.9,0-3.5-1.6-3.5-3.5s1.6-3.5,3.5-3.5,3.5,1.6,3.5,3.5-1.6,3.5-3.5,3.5ZM17.8,10.7h-2.3v-2.2h1l1.3,2.2ZM6.5,16.9c-.5,0-.7-.2-.7-.7s.2-.7.7-.7.7.2.7.7-.2.7-.7.7ZM15.6,16.9c-.5,0-.7-.2-.7-.7s.2-.7.7-.7.7.2.7.7-.2.7-.7.7ZM17.6,15.6c-.2-.8-1.1-1.4-1.9-1.4s-1.7.6-1.9,1.4h-.8v-7h1.4v2.8c0,.5.2.7.7.7h3.5v3.5h-1Z"></path><path d="M5.8,6.2v-1.8c0-.5-.2-.7-.7-.7s-.7.2-.7.7v2.2c0,.2,0,.4.2.5l1.4,1.4c0,.1.4.2.5.2s.4,0,.5-.2c.2-.2.2-.7,0-1l-1.2-1.2h0Z"></path></g></g></g></g></svg> 