<?xml version="1.0" encoding="UTF-8"?> <svg xmlns="http://www.w3.org/2000/svg" id="Capa_1" version="1.1" viewBox="0 0 33 32"><g id="Capa_11" data-name="Capa_1"><path d="M21.6,24H4.6V5c0-.3,0-.5.3-.7.2-.2.4-.3.7-.3h14c.3,0,.5,0,.7.3.2.2.3.4.3.7s.1.5.3.7c.2.2.4.3.7.3s.5,0,.7-.3c.2-.2.3-.4.3-.7,0-.8-.3-1.6-.9-2.1s-1.3-.9-2.1-.9H5.6c-.8,0-1.6.3-2.1.9-.6.6-.9,1.3-.9,2.1v22c0,.8.3,1.6.9,2.1.6.6,1.3.9,2.1.9h14c.8,0,1.6-.3,2.1-.9.6-.6.9-1.3.9-2.1v-2c0-.3-.1-.5-.3-.7-.2-.2-.4-.3-.7-.3ZM20.6,27c0,.3-.1.5-.3.7-.2.2-.4.3-.7.3H5.6c-.3,0-.5-.1-.7-.3s-.3-.4-.3-.7v-1h16v1Z"></path><path d="M27.6,8h-14c-.8,0-1.6.3-2.1.9-.6.6-.9,1.3-.9,2.1v8c0,.8.3,1.6.9,2.1.6.6,1.3.9,2.1.9h14c.8,0,1.6-.3,2.1-.9.6-.6.9-1.3.9-2.1v-8c0-.8-.3-1.6-.9-2.1-.6-.6-1.3-.9-2.1-.9ZM13.6,10h14c.3,0,.5.1.7.3s.3.4.3.7v1H12.6v-1c0-.3.1-.5.3-.7s.4-.3.7-.3ZM27.6,20h-14c-.3,0-.5-.1-.7-.3-.2-.2-.3-.4-.3-.7v-5h16v5c0,.3-.1.5-.3.7-.2.2-.4.3-.7.3Z"></path><path d="M25.6,16h-4c-.3,0-.5.1-.7.3-.2.2-.3.4-.3.7s.1.5.3.7c.2.2.4.3.7.3h4c.3,0,.5-.1.7-.3.2-.2.3-.4.3-.7s-.1-.5-.3-.7c-.2-.2-.4-.3-.7-.3Z"></path></g></svg> 